# xmcd
#
# Track frame offsets: 
#        150
#        11075
#        22335
#        33895
#        47990
#        62665
#        73575
#        86223
#        100945
#        113455
#        126913
#        142438
#        152560
#        165208
#        174648
#        186518
#        199095
#        211543
#        223285
#        234958
#
# Disc length: 3305 seconds
#
# Revision: 2
# Processed by: cddbd v1.5.2PL0 Copyright (c) Steve Scherf et al.
# Submitted via: ExactAudioCopy v0.95b4
#
DISCID=220ce714
DTITLE=Joe Stampley - Good Ol' Boy: His Greatest Hits
DYEAR=1900
DGENRE=Country
TTITLE0=If You Touch Me ,You've Got To Love Me
TTITLE1=Soul Song
TTITLE2=Roll On, Big Mama
TTITLE3=Dear Woman
TTITLE4=All These Things
TTITLE5=Every Day I Have To Cry
TTITLE6=Red Wine And Blue Memories
TTITLE7=If You Got Ten Minutes, Let's Fall In Love
TTITLE8=Do You Ever Fool Around
TTITLE9=I Don't Lie
TTITLE10=Put Your Clothes Back On
TTITLE11=I'm Gonna Love You Back To Loving Me Again
TTITLE12=Whiskey Chasin'
TTITLE13=I'm Goin' Hurtin'
TTITLE14=Backslidin'
TTITLE15=Double Shot Of My Baby's Love
TTITLE16=Honky Tonk Queen
TTITLE17=Just Good Ol' Boys
TTITLE18=Holding The Bag
TTITLE19=Where's The Dress
EXTD=
EXTT0=
EXTT1=
EXTT2=
EXTT3=
EXTT4=
EXTT5=
EXTT6=
EXTT7=
EXTT8=
EXTT9=
EXTT10=
EXTT11=
EXTT12=
EXTT13=
EXTT14=
EXTT15=
EXTT16=
EXTT17=With Moe Bandy
EXTT18=With Moe Bandy
EXTT19=With Moe Bandy
PLAYORDER=
